<mxfile host="Electron" agent="Mozilla/5.0 (Windows NT 10.0; Win64; x64) AppleWebKit/537.36 (KHTML, like Gecko) draw.io/28.1.2 Chrome/138.0.7204.243 Electron/37.4.0 Safari/537.36" version="28.1.2">
  <diagram name="หน้า-1" id="yPE1tqpb_lsDWWim6m2U">
    <mxGraphModel dx="1489" dy="894" grid="1" gridSize="10" guides="1" tooltips="1" connect="1" arrows="1" fold="1" page="1" pageScale="1" pageWidth="827" pageHeight="1169" math="0" shadow="0">
      <root>
        <mxCell id="0" />
        <mxCell id="1" parent="0" />
        <mxCell id="L7ZdPiykQo-FcEbLSZs2-1" value="Start" style="ellipse;whiteSpace=wrap;html=1;" vertex="1" parent="1">
          <mxGeometry x="354" y="50" width="120" height="60" as="geometry" />
        </mxCell>
        <mxCell id="L7ZdPiykQo-FcEbLSZs2-2" value="ประกาศตัวแปร Name[50], Age" style="rounded=0;whiteSpace=wrap;html=1;" vertex="1" parent="1">
          <mxGeometry x="334" y="150" width="160" height="60" as="geometry" />
        </mxCell>
        <mxCell id="L7ZdPiykQo-FcEbLSZs2-3" value="แสดงข้อความ &quot;Enter your name:&quot;" style="parallelogram;whiteSpace=wrap;html=1;" vertex="1" parent="1">
          <mxGeometry x="304" y="250" width="220" height="60" as="geometry" />
        </mxCell>
        <mxCell id="L7ZdPiykQo-FcEbLSZs2-4" value="รับค่าชื่อ (Name)" style="parallelogram;whiteSpace=wrap;html=1;" vertex="1" parent="1">
          <mxGeometry x="324" y="350" width="180" height="60" as="geometry" />
        </mxCell>
        <mxCell id="L7ZdPiykQo-FcEbLSZs2-5" value="แสดงข้อความ &quot;Enter your age:&quot;" style="parallelogram;whiteSpace=wrap;html=1;" vertex="1" parent="1">
          <mxGeometry x="304" y="450" width="220" height="60" as="geometry" />
        </mxCell>
        <mxCell id="L7ZdPiykQo-FcEbLSZs2-6" value="รับค่าอายุ (Age)" style="parallelogram;whiteSpace=wrap;html=1;" vertex="1" parent="1">
          <mxGeometry x="324" y="550" width="180" height="60" as="geometry" />
        </mxCell>
        <mxCell id="L7ZdPiykQo-FcEbLSZs2-7" value="แสดงเส้นคั่น - - - - -" style="parallelogram;whiteSpace=wrap;html=1;" vertex="1" parent="1">
          <mxGeometry x="314" y="650" width="200" height="60" as="geometry" />
        </mxCell>
        <mxCell id="L7ZdPiykQo-FcEbLSZs2-8" value="แสดง Hello + Name" style="parallelogram;whiteSpace=wrap;html=1;" vertex="1" parent="1">
          <mxGeometry x="324" y="750" width="180" height="60" as="geometry" />
        </mxCell>
        <mxCell id="L7ZdPiykQo-FcEbLSZs2-9" value="แสดง Age" style="parallelogram;whiteSpace=wrap;html=1;" vertex="1" parent="1">
          <mxGeometry x="344" y="850" width="140" height="60" as="geometry" />
        </mxCell>
        <mxCell id="L7ZdPiykQo-FcEbLSZs2-10" value="Stop" style="ellipse;whiteSpace=wrap;html=1;" vertex="1" parent="1">
          <mxGeometry x="354" y="950" width="120" height="60" as="geometry" />
        </mxCell>
        <mxCell id="L7ZdPiykQo-FcEbLSZs2-11" edge="1" parent="1" source="L7ZdPiykQo-FcEbLSZs2-1" target="L7ZdPiykQo-FcEbLSZs2-2">
          <mxGeometry relative="1" as="geometry" />
        </mxCell>
        <mxCell id="L7ZdPiykQo-FcEbLSZs2-12" edge="1" parent="1" source="L7ZdPiykQo-FcEbLSZs2-2" target="L7ZdPiykQo-FcEbLSZs2-3">
          <mxGeometry relative="1" as="geometry" />
        </mxCell>
        <mxCell id="L7ZdPiykQo-FcEbLSZs2-13" edge="1" parent="1" source="L7ZdPiykQo-FcEbLSZs2-3" target="L7ZdPiykQo-FcEbLSZs2-4">
          <mxGeometry relative="1" as="geometry" />
        </mxCell>
        <mxCell id="L7ZdPiykQo-FcEbLSZs2-14" edge="1" parent="1" source="L7ZdPiykQo-FcEbLSZs2-4" target="L7ZdPiykQo-FcEbLSZs2-5">
          <mxGeometry relative="1" as="geometry" />
        </mxCell>
        <mxCell id="L7ZdPiykQo-FcEbLSZs2-15" edge="1" parent="1" source="L7ZdPiykQo-FcEbLSZs2-5" target="L7ZdPiykQo-FcEbLSZs2-6">
          <mxGeometry relative="1" as="geometry" />
        </mxCell>
        <mxCell id="L7ZdPiykQo-FcEbLSZs2-16" edge="1" parent="1" source="L7ZdPiykQo-FcEbLSZs2-6" target="L7ZdPiykQo-FcEbLSZs2-7">
          <mxGeometry relative="1" as="geometry" />
        </mxCell>
        <mxCell id="L7ZdPiykQo-FcEbLSZs2-17" edge="1" parent="1" source="L7ZdPiykQo-FcEbLSZs2-7" target="L7ZdPiykQo-FcEbLSZs2-8">
          <mxGeometry relative="1" as="geometry" />
        </mxCell>
        <mxCell id="L7ZdPiykQo-FcEbLSZs2-18" edge="1" parent="1" source="L7ZdPiykQo-FcEbLSZs2-8" target="L7ZdPiykQo-FcEbLSZs2-9">
          <mxGeometry relative="1" as="geometry" />
        </mxCell>
        <mxCell id="L7ZdPiykQo-FcEbLSZs2-19" edge="1" parent="1" source="L7ZdPiykQo-FcEbLSZs2-9" target="L7ZdPiykQo-FcEbLSZs2-10">
          <mxGeometry relative="1" as="geometry" />
        </mxCell>
      </root>
    </mxGraphModel>
  </diagram>
</mxfile>
